<svg width="293" height="397" viewBox="0 0 293 397" fill="none" xmlns="http://www.w3.org/2000/svg">
<path fill-rule="evenodd" clip-rule="evenodd" d="M285.338 382.143C293.51 332.538 294.521 269.115 287.887 222.2C283.539 191.456 273.611 159.822 260.451 134.784C223.887 65.2211 165.87 20.1508 92.1304 4.02216C77.2084 0.758318 73.9512 0.514563 45.1783 0.500305C19.3792 0.488639 13.9464 0.807513 12.3606 2.43036C10.3815 4.45373 5.07508 31.118 2.81513 50.3899C-7.25123 136.256 15.785 221.53 66.5432 286.303C88.6422 314.502 120.559 339.74 158.223 358.798C185.805 372.754 215.928 382.815 253.243 390.535C278.555 395.772 281.36 396.225 282.48 395.246C282.929 394.853 284.216 388.957 285.338 382.143Z" fill="#B9CABF" stroke="black"/>
</svg>
