<svg width="272" height="148" viewBox="0 0 272 148" fill="none" xmlns="http://www.w3.org/2000/svg">
<path fill-rule="evenodd" clip-rule="evenodd" d="M230.47 3.06345C223.718 6.48283 220.078 10.1394 217.002 16.5893C213.982 22.92 213.575 34.6999 216.158 40.958C223.688 59.1981 246.532 64.471 261.538 51.4313C277.268 37.7628 272.592 10.4492 253.101 2.15743C247.141 -0.377941 236.417 0.0510776 230.47 3.06345ZM111.829 29.5293C97.882 34.5767 90.7511 51.2537 96.8453 64.5722C99.9594 71.3798 103.827 75.3436 110.243 78.3015C117.602 81.6937 124.59 81.4047 132.553 77.3774C153.62 66.7187 149.949 34.9345 126.974 29.0614C119.918 27.2584 117.936 27.3193 111.829 29.5293ZM13.2386 103.899C-8.10963 114.04 -1.01187 146.881 22.5299 146.881C30.2316 146.881 34.68 144.986 39.7515 139.543C46.2862 132.533 47.5515 124.131 43.4555 114.974C38.2909 103.427 24.7107 98.4497 13.2386 103.899Z" fill="#B9CABF" stroke="black"/>
</svg>
