<svg width="577" height="594" viewBox="0 0 577 594" fill="none" xmlns="http://www.w3.org/2000/svg">
<path fill-rule="evenodd" clip-rule="evenodd" d="M276.169 3.06345C269.417 6.48283 265.777 10.1394 262.701 16.5893C259.681 22.92 259.274 34.6999 261.857 40.958C269.388 59.1981 292.231 64.471 307.237 51.4313C322.968 37.7628 318.291 10.4492 298.8 2.15743C292.84 -0.377941 282.116 0.0510776 276.169 3.06345ZM157.528 29.5293C143.581 34.5767 136.45 51.2537 142.544 64.5722C145.659 71.3798 149.526 75.3436 155.942 78.3015C163.302 81.6937 170.29 81.4047 178.252 77.3774C199.319 66.7187 195.648 34.9345 172.673 29.0614C165.618 27.2584 163.635 27.3193 157.528 29.5293ZM58.9378 103.899C37.5896 114.04 44.6873 146.881 68.2291 146.881C75.9308 146.881 80.3792 144.986 85.4507 139.543C91.9854 132.533 93.2508 124.131 89.1548 114.974C83.9901 103.427 70.4099 98.4497 58.9378 103.899ZM524.435 114.551C451.143 125.748 391.627 147.252 345.044 179.369C285.203 220.626 239.941 285.614 219.452 359.689C204.465 413.874 201.788 465.604 211.015 522.737C212.681 533.05 213.858 541.676 213.631 541.906C212.183 543.376 182.726 529.926 167.584 520.878C107.025 484.696 64.248 427.317 48.2509 360.81C40.4956 328.568 39.7806 315.342 42.1797 248.359C42.5308 238.581 33.9724 230.835 22.8207 230.835C10.7217 230.835 4.13721 237.379 1.96025 251.566C-0.289485 266.234 0.144627 315.054 2.68292 332.886C13.0276 405.536 41.8771 464.678 89.4152 510.688C179.038 597.429 311.141 617.356 418.262 560.292C495.999 518.881 549.092 446.729 568.518 356.095C574.607 327.687 576.003 311.287 576.065 267.428C576.138 215.938 572.75 180.307 563.799 138.456C559.708 119.325 557.765 114.005 554.383 112.688C550.993 111.368 541.35 111.968 524.435 114.551ZM530.026 170.288C538.198 219.892 539.209 283.315 532.575 330.23C528.227 360.975 518.299 392.609 505.139 417.646C468.575 487.209 410.558 532.28 336.818 548.408C321.896 551.672 318.639 551.916 289.866 551.93C264.067 551.942 258.634 551.623 257.049 550C255.07 547.977 249.763 521.312 247.503 502.041C237.437 416.175 260.473 330.9 311.231 266.128C333.33 237.929 365.247 212.691 402.911 193.632C430.493 179.676 460.616 169.615 497.931 161.895C523.243 156.658 526.048 156.206 527.168 157.185C527.617 157.577 528.904 163.474 530.026 170.288Z" fill="#B9CABF" stroke="black"/>
</svg>
