<svg width="293" height="397" viewBox="0 0 293 397" fill="none" xmlns="http://www.w3.org/2000/svg">
<path fill-rule="evenodd" clip-rule="evenodd" d="M285.338 14.0175C293.51 63.6219 294.521 127.045 287.887 173.96C283.539 204.704 273.611 236.338 260.451 261.376C223.887 330.939 165.87 376.009 92.1304 392.138C77.2084 395.402 73.9512 395.646 45.1783 395.66C19.3792 395.671 13.9464 395.353 12.3606 393.73C10.3815 391.706 5.07508 365.042 2.81513 345.77C-7.25123 259.905 15.785 174.63 66.5432 109.857C88.6422 81.6586 120.559 56.4202 158.223 37.3621C185.805 23.4059 215.928 13.3448 253.243 5.6246C278.555 0.38794 281.36 -0.0644229 282.48 0.91421C282.929 1.30696 284.216 7.20341 285.338 14.0175Z" fill="#B9CABF" stroke="black"/>
</svg>
